<svg width="300" height="57.125308239775215" viewBox="0 0 370.25925925925924 70.50391437938677" class="css-1j8o68f"><defs id="SvgjsDefs2045"><linearGradient id="SvgjsLinearGradient2050"><stop id="SvgjsStop2051" stop-color="#945f50" offset="0"></stop><stop id="SvgjsStop2052" stop-color="#fcc5b3" offset="0.5"></stop><stop id="SvgjsStop2053" stop-color="#945f50" offset="1"></stop></linearGradient></defs><g id="SvgjsG2046" featurekey="monogramFeature-0" transform="matrix(1.600251761547466,0,0,1.600251761547466,0.8984903551072867,-53.17988758634819)" fill="url(#SvgjsLinearGradient2050)"><path d="M38.88 33.54 c2.64 0.18 1.14 2.4 -0.24 3.96 c-1.44 1.56 -8.82 7.92 -20.22 17.46 c-5.34 4.5 -14.76 12.66 -17.22 14.64 c3.96 -0.84 11.82 -1.74 21.84 -1.2 c14.94 0.78 27.36 3.36 32.34 7.56 c1.44 1.26 0.6 1.8 -0.54 0.84 c-3.84 -3.3 -18.78 -6.48 -31.86 -7.02 c-9.36 -0.42 -15.72 0.18 -21.96 1.38 c-1.62 0.3 -2.28 -1.38 -0.6 -2.64 c2.22 -1.62 4.14 -4.14 17.34 -14.7 c8.88 -7.08 17.94 -14.88 19.74 -16.86 c1.8 -1.92 1.68 -2.34 0.96 -2.46 c-3.3 -0.3 -12 -0.42 -20.04 0.48 c-16.8 1.86 -17.88 6.24 -15.24 9.12 c0.84 0.9 -0.24 1.56 -1.26 0.84 c-2.16 -1.56 -4.2 -9.06 16.26 -11.16 c8.52 -0.84 16.92 -0.54 20.7 -0.24 z"></path></g><g id="SvgjsG2047" featurekey="nameFeature-0" transform="matrix(0.5757797125297488,0,0,0.5757797125297488,110.15999416822727,20.120901325435483)" fill="#ffffff"><path d="M19.671 15.421 l18.353 24.38 l-5.9015 0 l-5.132 -6.7948 l-14.639 0 l-5.0572 6.7948 l-5.8354 0 z M15.872 28.311 l7.5966 0 l-3.7984 -5.0644 z M82.119 35.114 l2.324 -0.034844 l0.069572 4.6484 l-2.3241 0.034805 c-0.36176 0.005508 -0.77084 0.011797 -1.2174 0.011797 c-3.2279 0 -8.4052 -0.32016 -11.676 -3.5423 c-1.456 -1.4345 -2.3731 -3.258 -2.7396 -5.44 l-8.4109 0 l-0.033203 8.9792 l-4.6492 -0.017266 l0.074804 -20.255 l0 -2.327 l0.0086328 0 l0 -0.0086328 l2.3223 0.0086328 l21.902 0 c2.9457 0 7.3276 1.8136 7.3276 6.8096 c0 4.9964 -4.0724 6.81 -6.8096 6.81 l-6.9651 0 c0.25086 0.8504 0.65684 1.5585 1.2347 2.1279 c2.337 2.3019 7.216 2.2292 9.5608 2.1939 z M58.186800000000005 26.143 l20.081 -0.000039062 c0.20297 -0.0070704 0.80852 -0.083436 1.3076 -0.35942 c0.43216 -0.2391 0.87372 -0.64012 0.87372 -1.8015 c0 -0.93384 -0.31598 -1.4394 -1.1276 -1.8033 c-0.73764 -0.33062 -1.543 -0.3573 -1.5506 -0.3573 l-19.584 0 l0 4.3216 z M107.0756 40.04922 l-4.6491 0 l0 -22.591 l4.6491 0 l0 22.591 z M129.968 22.009 c-0.43632 0.24117 -0.88236 0.64612 -0.88236 1.8193 c0 0.91448 0.29558 1.4144 1.0547 1.7822 c0.76772 0.37195 1.6239 0.39914 1.6671 0.4002 l17.067 0.06672 c2.9656 0 7.3912 1.8316 7.3912 6.8776 s-4.1128 6.8776 -6.8776 6.8776 l-24.997 0 l0 -4.6954 l24.977 0 c0.2048 -0.0070704 0.81636 -0.08422 1.3204 -0.36305 c0.43656 -0.24144 0.88256 -0.64636 0.88256 -1.8193 c0 -0.91448 -0.29558 -1.4144 -1.0547 -1.7822 c-0.7654 -0.37094 -1.6208 -0.39894 -1.6686 -0.40024 l-17.056 -0.07586 l0 0.0091406 c-2.975 0 -7.4008 -1.8316 -7.4008 -6.8776 s4.1128 -6.8776 6.8776 -6.8776 l24.997 0 l0 4.6954 l-24.976 0 c-0.20457 0.0070704 -0.81668 0.08422 -1.321 0.36305 z M200.734 17.234 l4.6951 0 l0 22.815 l-4.6951 0 l0 -9.0599 l-22.484 0 l0 9.0599 l-4.6954 0 l0 -22.815 l4.6954 0 l0 9.0599 l22.484 0 l0 -9.0599 z M255.7316 40.04922 l-4.6491 0 l0 -22.591 l4.6491 0 l0 22.591 z M305.57399999999996 36.6645 l-2.5642 3.8954 l-2.5185 -1.6579 c-2.2627 0.80044 -5.6176 0.83468 -11.589 0.89432 c-1.1575 0.011524 -2.2248 0.020156 -3.2094 0.020156 c-5.8708 0 -8.822 -0.31074 -10.708 -2.1844 c-1.9637 -1.9514 -1.953 -4.8252 -1.9368 -9.1752 c0.018047 -4.854 0.029297 -7.7832 2.4897 -9.602 c2.1225 -1.569 5.2052 -1.6103 11.959 -1.7011 l1.3479 -0.018555 c8.418 -0.12031 11.902 -0.17 14.071 1.9808 c1.8353 1.8196 1.8201 4.452 1.7971 8.4364 c-0.0018359 0.29664 -0.0033984 0.604 -0.0046876 0.92236 c-0.0089064 2.3647 -0.015195 4.0732 -0.26344 5.514 c-0.083712 0.48524 -0.21215 1.0552 -0.44496 1.6407 z M288.856 35.1328 c2.1894 -0.021719 4.1344 -0.041288 5.7512 -0.10434 l-5.3084 -3.4947 l2.5645 -3.8955 l8.0296 5.2864 c0.1402 -1.0484 0.14594 -2.6043 0.15301 -4.4672 c0.0010547 -0.32176 0.0028906 -0.63228 0.0047264 -0.93176 c0.013086 -2.2899 0.02668 -4.6576 -0.41724 -5.0976 c-0.55116 -0.54644 -3.0247 -0.67276 -6.3168 -0.67276 c-1.3547 0 -2.8481 0.021445 -4.4036 0.043672 l-1.3521 0.018555 c-4.8388 0.064884 -8.3348 0.11195 -9.25 0.78812 c-0.5776 0.42692 -0.587 2.9491 -0.59796 5.8692 c-0.010195 2.7118 -0.019883 5.2732 0.56032 5.8496 c0.91108 0.90508 5.828 0.85564 10.583 0.80856 z M354.686 24.085 c0 2.0163 -0.65756 3.518 -1.6228 4.5964 c0.97048 1.0675 1.6226 2.5284 1.6226 4.4636 c0 5.046 -4.1128 6.8776 -6.8776 6.8776 l-24.997 0 l0 -22.815 l24.474 0 c2.975 0 7.4008 1.8316 7.4008 6.8776 z M349.10799999999995 34.9636 c0.43632 -0.24144 0.88232 -0.64636 0.88204 -1.8193 c0 -0.94328 -0.31938 -1.4539 -1.1389 -1.8214 c-0.745 -0.33402 -1.5585 -0.36098 -1.5661 -0.36098 l-19.779 0 l0 4.3645 l20.281 0 c0.2048 -0.0067968 0.81664 -0.083944 1.3207 -0.36277 z M349.10799999999995 25.904 c0.43632 -0.24144 0.88232 -0.64608 0.88232 -1.8193 c0 -0.94328 -0.31938 -1.4539 -1.1389 -1.8214 c-0.745 -0.33402 -1.5585 -0.36098 -1.5661 -0.36098 l-19.779 0 l0 4.3645 l20.281 0 c0.2048 -0.0067968 0.81664 -0.083944 1.3207 -0.36277 z M386.06699999999995 15.421 l18.353 24.38 l-5.9015 0 l-5.132 -6.7948 l-14.639 0 l-5.0572 6.7948 l-5.8354 0 z M382.268 28.311 l7.5966 0 l-3.7984 -5.0644 z M424.554 35.238 l27.18 0 l0 4.6954 l-31.875 0 l0 -22.815 l4.6954 0 l0 18.119 z"></path></g></svg>