<svg width="184" height="60" viewBox="0 0 184 60" fill="none" xmlns="http://www.w3.org/2000/svg">
<g clip-path="url(#clip0_1619_4693)">
<path d="M38.75 54.8063C52.1998 54.8063 63.1031 44.0105 63.1031 30.6932C63.1031 17.3759 52.1998 6.58008 38.75 6.58008C25.3002 6.58008 14.397 17.3759 14.397 30.6932C14.397 44.0105 25.3002 54.8063 38.75 54.8063Z" fill="#FEE8CA" stroke="#333333" stroke-width="2" stroke-miterlimit="10"/>
<path d="M38.7501 50.0633C49.2579 50.0633 57.7761 41.629 57.7761 31.2248C57.7761 20.8205 49.2579 12.3862 38.7501 12.3862C28.2423 12.3862 19.7241 20.8205 19.7241 31.2248C19.7241 41.629 28.2423 50.0633 38.7501 50.0633Z" fill="#D85658"/>
<path d="M38.7501 48.9993C49.2579 48.9993 57.7761 40.565 57.7761 30.1608C57.7761 19.7566 49.2579 11.3223 38.7501 11.3223C28.2423 11.3223 19.7241 19.7566 19.7241 30.1608C19.7241 40.565 28.2423 48.9993 38.7501 48.9993Z" fill="#EB5D5F"/>
<path d="M93.0491 24.5H102.495C102.46 17.3622 96.9553 12.6392 88.1485 12.6392C79.5015 12.6392 73.3935 17.2912 73.4468 24.2159C73.429 29.8977 77.3708 33.0582 83.8161 34.4432L87.4383 35.2244C91.4866 36.1122 92.8715 37.1243 92.907 38.7756C92.8715 40.5689 91.238 41.8295 88.0775 41.8295C84.2955 41.8295 82.0583 40.054 81.8985 36.7159H72.5235C72.559 45.8423 78.738 49.9261 88.2195 49.9261C97.4347 49.9261 102.957 45.9489 102.992 38.7756C102.957 33.2358 99.6542 29.3473 91.6286 27.625L88.6456 26.9858C85.201 26.2578 83.6563 25.2457 83.7451 23.5057C83.7628 21.9077 85.0945 20.7358 88.1485 20.7358C91.3445 20.7358 92.8537 22.1385 93.0491 24.5ZM106.748 49.5H123.864C131.765 49.5 136.648 45.1854 136.648 39.2017C136.648 34.0703 132.866 30.7145 128.196 30.5369V30.1818C132.405 29.3473 135.228 26.2401 135.228 22.2273C135.228 16.6875 130.824 13.1364 122.515 13.1364H106.748V49.5ZM116.62 41.6165V33.946H121.378C124.379 33.946 126.208 35.3665 126.208 37.9233C126.208 40.3558 124.557 41.6165 121.236 41.6165H116.62ZM116.62 27.8381V20.8778H120.81C123.26 20.8778 125.071 22.1207 125.071 24.358C125.071 26.5952 123.26 27.8381 120.668 27.8381H116.62ZM140.146 49.5H150.018V38.7045H155.487C163.779 38.7045 169.336 33.8217 169.336 25.9915C169.336 18.25 163.921 13.1364 155.842 13.1364H140.146V49.5ZM150.018 31.0341V21.0199H153.498C156.961 21.0199 159.038 22.8665 159.038 25.9915C159.038 29.0987 156.961 31.0341 153.498 31.0341H150.018Z" fill="#333333"/>
</g>
<defs>
<clipPath id="clip0_1619_4693">
<rect width="184" height="59" fill="white" transform="translate(0 0.5)"/>
</clipPath>
</defs>
</svg>
