<svg viewBox="0 0 108 108" xmlns="http://www.w3.org/2000/svg">
  <defs>
    <linearGradient x1="87.842%" y1="15.95%" x2="13.101%" y2="80.989%" id="a">
      <stop stop-color="#02B3A6" offset="0%"/>
      <stop stop-color="#015457" offset="100%"/>
    </linearGradient>
  </defs>
  <path d="M107 53.854C107 83.206 82.993 107 53.38 107A53.698 53.698 0 0 1 10 85.1l46.047-.001c11.004-.314 17.746-3.693 20.225-10.14 2.48-6.445.364-12.77-6.347-18.973L53.2 42.93a1.631 1.631 0 0 1-.276-2.304 1.662 1.662 0 0 1 1.3-.626h50.936A52.771 52.771 0 0 1 107 53.854ZM53.476 0C71.42 0 87.3 8.873 97 22.486H49.064c-9.798.69-15.877 4.223-18.238 10.6-2.361 6.378.056 12.923 7.252 19.636l16.6 12.286c.734.543.89 1.58.35 2.317a1.65 1.65 0 0 1-1.33.675H1.922A53.935 53.935 0 0 1 0 53.684C0 24.035 23.942 0 53.476 0Z" transform="translate(.5 .5)" fill="url(#a)" fill-rule="evenodd"/>
</svg>
